<?xml version="1.0" encoding="UTF-8"?>
<svg version="1.1" xmlns="http://www.w3.org/2000/svg" width="300" height="300">
<path d="M0 0 C0.78761719 0.50789063 1.57523437 1.01578125 2.38671875 1.5390625 C5.5703458 3.31884803 7.16734577 3.18598438 10.75 2.75 C12.19632813 2.58757813 12.19632813 2.58757813 13.671875 2.421875 C15.44717967 2.19683638 17.22236234 1.97074323 18.99658203 1.73730469 C45.29521333 -1.49782106 76.06618196 0.61955939 97.875 17.18359375 C106.7064365 24.68311523 114.17541875 34.41710962 115.2019043 46.34643555 C115.30444346 48.98485682 115.32881593 51.60965641 115.3125 54.25 C115.30512817 55.65161377 115.30512817 55.65161377 115.29760742 57.08154297 C115.18364135 63.78742332 114.54326407 69.73887198 112 76 C111.64808594 76.88300781 111.29617187 77.76601562 110.93359375 78.67578125 C106.15537536 89.82495749 99.93022898 99.8389771 92 109 C91.17628906 109.95777344 90.35257813 110.91554688 89.50390625 111.90234375 C78.87041829 124.014012 66.64491715 133.49769408 53 142 C52.43200684 142.35690918 51.86401367 142.71381836 51.27880859 143.08154297 C21.72150734 161.44381153 -14.50234773 170.17439431 -49 172 C-49.25136719 173.25941406 -49.50273438 174.51882812 -49.76171875 175.81640625 C-50.99515744 181.36200726 -52.8772299 186.60432395 -54.8125 191.9375 C-57.3869366 199.17260481 -59.80352926 206.39921556 -61.8125 213.8125 C-62.01206299 214.54686279 -62.21162598 215.28122559 -62.41723633 216.0378418 C-63.23048584 219.06032065 -64.02223146 222.08750214 -64.79296875 225.12109375 C-66.26246296 230.58501419 -67.86150664 234.05857775 -72 238 C-77.23449588 240.52942083 -82.28735281 240.93984896 -88 240 C-92.89444328 237.40064203 -95.20464967 234.16829116 -97 229 C-98.1072203 220.57315123 -95.96427711 213.0323186 -93.4375 205.0625 C-93.07978516 203.89549561 -92.72207031 202.72849121 -92.35351562 201.52612305 C-89.17064295 191.25686783 -85.68490388 181.09893971 -82 171 C-83.21042969 171.04511719 -84.42085937 171.09023437 -85.66796875 171.13671875 C-89.38288594 171.13262653 -91.9725798 170.54371861 -95.3125 168.8125 C-96.13363281 168.40644531 -96.95476562 168.00039062 -97.80078125 167.58203125 C-101.4307822 164.97075171 -102.76684996 162.31949408 -103.5390625 157.94921875 C-103.69617362 151.98613749 -103.67932934 147.91698018 -99.6875 143.25 C-96.85671232 140.42514689 -94.74476814 139.08392647 -90.63989258 138.88647461 C-89.73392334 138.89171143 -88.8279541 138.89694824 -87.89453125 138.90234375 C-86.91162109 138.90556641 -85.92871094 138.90878906 -84.91601562 138.91210938 C-83.37977539 138.92467773 -83.37977539 138.92467773 -81.8125 138.9375 C-80.25885742 138.94426758 -80.25885742 138.94426758 -78.67382812 138.95117188 C-76.11582734 138.9629599 -73.55794267 138.97941485 -71 139 C-70.60228394 137.94147827 -70.60228394 137.94147827 -70.1965332 136.86157227 C-64.68863078 122.22273422 -59.10814818 107.61473708 -53.375 93.0625 C-52.96607513 92.02428101 -52.96607513 92.02428101 -52.54888916 90.96508789 C-48.63727624 81.04501674 -44.65724206 71.15492053 -40.53857422 61.31860352 C-40.19971191 60.50319092 -39.86084961 59.68777832 -39.51171875 58.84765625 C-39.07025513 57.7959021 -39.07025513 57.7959021 -38.61987305 56.72290039 C-37.88715332 54.99151907 -37.88715332 54.99151907 -38 53 C-38.76183594 53.44472656 -39.52367187 53.88945313 -40.30859375 54.34765625 C-50.65457942 60.01792804 -50.65457942 60.01792804 -57.03515625 58.66796875 C-61.89749683 57.01496629 -64.86507204 54.704877 -67.4375 50.3125 C-69.42871393 45.81135255 -69.66206851 41.64919626 -68 37 C-64.91849257 31.44646949 -61.1791226 28.34625639 -55.6875 25.3125 C-55.0181543 24.92803711 -54.34880859 24.54357422 -53.65917969 24.14746094 C-49.18644381 21.59876327 -44.68212642 19.14362414 -40 17 C-39.15179688 16.60296875 -38.30359375 16.2059375 -37.4296875 15.796875 C-32.87631667 13.69141662 -28.33154971 11.73694096 -23.625 10 C-19.44035781 8.36970565 -17.06545184 6.32090616 -14 3 C-9.11228317 -0.14986196 -5.65915042 -0.53896671 0 0 Z " fill="#007C37" transform="translate(144,30)"/>
<path d="M0 0 C2.8316564 0.22355182 4.48586217 0.50642768 6.5625 2.5 C8.25646677 5.44602916 9.54766072 8.49247922 10.89453125 11.609375 C12.57967486 15.25357248 14.45852141 18.87692914 17 22 C20.3111013 23.10370043 22.24748949 22.92673641 25.6875 22.5625 C26.68136719 22.46066406 27.67523438 22.35882813 28.69921875 22.25390625 C29.45847656 22.17011719 30.21773437 22.08632812 31 22 C30.50113281 21.40445313 30.00226563 20.80890625 29.48828125 20.1953125 C28 18 28 18 28.1875 14.875 C29 12 29 12 31 10 C35.95712823 9.40654099 38.55738453 10.54537568 42.625 13.3125 C43.54539063 13.92738281 44.46578125 14.54226562 45.4140625 15.17578125 C48 17 48 17 49.93359375 18.703125 C52.77808713 20.48832689 55.10119054 20.31253041 58.4375 20.4375 C67.29321316 21.49021251 71.69913048 26.26876123 77.51171875 32.51416016 C79.03912072 34.03905654 80.64892997 35.28219267 82.375 36.57421875 C85 39 85 39 85.63671875 41.5 C84.77861174 44.86925451 83.2095315 46.49738963 80.8125 49 C79.575 50.29550781 79.575 50.29550781 78.3125 51.6171875 C77.549375 52.40351563 76.78625 53.18984375 76 54 C75.505 54.58007812 75.01 55.16015625 74.5 55.7578125 C72.50745454 58.05186155 71.15988245 58.96091762 68.1875 59.6875 C64.2898021 58.84682006 62.20936041 57.17365386 59.22265625 54.60546875 C51.83349628 49.26813176 44.26261791 49.3391942 35.44921875 48.91601562 C27.49414542 48.39992633 22.79570769 46.53164242 16.6875 41.3125 C13.73613619 39.11227157 11.59603517 38.69168972 7.9375 38.5 C3.91296088 38.25112202 1.50432026 37.6593267 -1.49609375 34.71875 C-6.38017191 29.13694639 -10.92053746 23.80723298 -14 17 C-14.5775 16.29875 -15.155 15.5975 -15.75 14.875 C-17 13 -17 13 -16.6875 10.75 C-16.460625 10.1725 -16.23375 9.595 -16 9 C-15.01 9 -14.02 9 -13 9 C-13.5259375 8.13375 -13.5259375 8.13375 -14.0625 7.25 C-15.14917407 4.64198224 -14.93065133 3.60582371 -14 1 C-11.8125 0.6875 -11.8125 0.6875 -9 1 C-4.78339127 4.3938558 -2.49015356 8.2963766 0 13 C0.07657992 9.78364348 -0.02257922 6.86703346 -0.5625 3.6875 C-0.706875 2.800625 -0.85125 1.91375 -1 1 C-0.67 0.67 -0.34 0.34 0 0 Z " fill="#F9FCF9" transform="translate(153,87)"/>
<path d="M0 0 C4.3678722 -0.71914707 7.15554184 0.86886137 10.9375 2.9375 C16.44170091 5.94172837 20.90879783 7.0358618 27.13671875 7.03515625 C36.57411998 7.04238244 42.01739362 7.7200433 49.39453125 14.125 C53.2303763 16.88542822 56.94476326 17.27130858 61.56640625 17.74609375 C64 18 64 18 66 19 C66 19.99 66 20.98 66 22 C67.485 22.495 67.485 22.495 69 23 C73.89335181 28.62026277 78.80852174 34.79942857 81 42 C80.505 42.99 80.505 42.99 80 44 C80.66 44 81.32 44 82 44 C82 44.66 82 45.32 82 46 C80.68 46 79.36 46 78 46 C78.515625 46.763125 79.03125 47.52625 79.5625 48.3125 C80.036875 49.199375 80.51125 50.08625 81 51 C80.67 51.99 80.34 52.98 80 54 C74.66019417 54.48543689 74.66019417 54.48543689 71.875 52.4375 C66 44.8 66 44.8 66 41 C65.34 41 64.68 41 64 41 C64.495 47.435 64.495 47.435 65 54 C60 53 60 53 58.3125 50.75 C57 48 57 48 56.125 45.75 C53.09846958 38.16442904 53.09846958 38.16442904 47.6875 32.3125 C43.75534628 31.85527282 40.77959532 32.84690312 37 34 C37.020625 35.093125 37.04125 36.18625 37.0625 37.3125 C37 41 37 41 36 44 C33.00818583 45.49590709 31.3583794 45.42743011 28 45 C23.9065324 42.82201984 20.15099977 40.35369156 17.13671875 36.80859375 C14.18186778 34.30750417 12.25372346 34.69737371 8.4375 34.8125 C-0.08947196 34.44946173 -4.08316874 30.77640014 -10 25 C-11.45246897 23.76390911 -12.91026122 22.53402655 -14.375 21.3125 C-17.62509825 18.45027356 -20.33719583 15.41171784 -23 12 C-16.70560616 8.70902251 -10.62270134 5.59072728 -3.7421875 3.73828125 C-1.62163506 3.02792742 -1.62163506 3.02792742 0 0 Z " fill="#F6FBF6" transform="translate(130,37)"/>
<path d="M0 0 C2.1875 -0.3125 2.1875 -0.3125 5 0 C9.21660873 3.3938558 11.50984644 7.2963766 14 12 C14.66 11.34 15.32 10.68 16 10 C16.79441072 11.87383903 17.58539974 13.74912886 18.375 15.625 C18.81585938 16.66914062 19.25671875 17.71328125 19.7109375 18.7890625 C21 22 21 22 21.7734375 25.08203125 C23.38663677 28.91980149 25.9430465 30.74319369 29.25 33.0625 C30.38111042 33.88548034 31.51132283 34.70969635 32.640625 35.53515625 C33.19999756 35.93645752 33.75937012 36.33775879 34.33569336 36.7512207 C36.01186092 38.0088996 37.57128057 39.35108107 39.14453125 40.734375 C41.84000517 42.87305472 43.12806537 43.68607051 46.4375 44.1875 C47.2934375 44.331875 48.149375 44.47625 49.03125 44.625 C51.21338141 44.90063765 53.40254751 45.12196065 55.59375 45.3125 C66.80770494 46.40654438 74.19306345 49.85207082 82 58 C78.5890019 57.37349014 76.37743664 56.05783637 73.5625 54.0625 C68.75042968 50.6563911 64.65684043 48.82567797 58.7265625 48.5078125 C57.7365625 48.44207031 56.7465625 48.37632812 55.7265625 48.30859375 C53.6670872 48.18668526 51.60716837 48.07204176 49.546875 47.96484375 C41.56380323 47.41535959 36.81671704 45.54959381 30.6875 40.3125 C27.73613619 38.11227157 25.59603517 37.69168972 21.9375 37.5 C17.91296088 37.25112202 15.50432026 36.6593267 12.50390625 33.71875 C7.61982809 28.13694639 3.07946254 22.80723298 0 16 C-0.5775 15.29875 -1.155 14.5975 -1.75 13.875 C-3 12 -3 12 -2.6875 9.75 C-2.460625 9.1725 -2.23375 8.595 -2 8 C-1.01 8 -0.02 8 1 8 C0.649375 7.4225 0.29875 6.845 -0.0625 6.25 C-1.14917407 3.64198224 -0.93065133 2.60582371 0 0 Z " fill="#F7FCF7" transform="translate(139,88)"/>
<path d="M0 0 C10.45079859 -0.19602905 17.13631823 0.06225185 25.359375 7.125 C29.22038818 9.86654782 32.93289137 10.27008897 37.56640625 10.74609375 C40 11 40 11 42 12 C42 12.99 42 13.98 42 15 C42.99 15.33 43.98 15.66 45 16 C49.89335181 21.62026277 54.80852174 27.79942857 57 35 C56.505 35.99 56.505 35.99 56 37 C56.66 37 57.32 37 58 37 C58 37.66 58 38.32 58 39 C56.68 39 55.36 39 54 39 C54.515625 39.763125 55.03125 40.52625 55.5625 41.3125 C56.036875 42.199375 56.51125 43.08625 57 44 C56.67 44.99 56.34 45.98 56 47 C50.66019417 47.48543689 50.66019417 47.48543689 47.875 45.4375 C42 37.8 42 37.8 42 34 C41.34 34 40.68 34 40 34 C39.67 34.99 39.34 35.98 39 37 C38.6596875 35.84242187 38.319375 34.68484375 37.96875 33.4921875 C34.9773005 22.77749764 34.9773005 22.77749764 27.24609375 15.390625 C24.33388125 13.58758561 22.26076495 11.26482815 19.875 8.8125 C13.77030022 3.1027597 8.21142531 1.93502361 0 1 C0 0.67 0 0.34 0 0 Z " fill="#F2FAF3" transform="translate(154,44)"/>
<path d="M0 0 C3.80678896 0.39173978 5.70450047 1.50364257 8.8515625 3.64453125 C10.23214844 4.56685547 10.23214844 4.56685547 11.640625 5.5078125 C14.2265625 7.33203125 14.2265625 7.33203125 16.15234375 9.02734375 C19.01979846 10.83097816 21.42614738 10.71793124 24.7890625 10.89453125 C33.48951114 11.90578758 37.53217724 16.03334388 43.2265625 22.33203125 C42.2365625 22.82703125 42.2365625 22.82703125 41.2265625 23.33203125 C40.7315625 24.81703125 40.7315625 24.81703125 40.2265625 26.33203125 C39.5665625 26.33203125 38.9065625 26.33203125 38.2265625 26.33203125 C37.8140625 25.19765625 37.4015625 24.06328125 36.9765625 22.89453125 C35.65970852 19.23659741 35.65970852 19.23659741 33.0390625 18.39453125 C32.4409375 18.37390625 31.8428125 18.35328125 31.2265625 18.33203125 C31.2265625 18.99203125 31.2265625 19.65203125 31.2265625 20.33203125 C30.5665625 20.33203125 29.9065625 20.33203125 29.2265625 20.33203125 C28.79601562 19.54699219 28.36546875 18.76195313 27.921875 17.953125 C25.86708056 14.77624236 24.67538829 14.41780616 21.1015625 13.39453125 C15.4306394 11.55959874 10.99451211 8.86384578 6.2265625 5.33203125 C6.1028125 6.11578125 5.9790625 6.89953125 5.8515625 7.70703125 C5.2265625 10.33203125 5.2265625 10.33203125 3.2265625 12.33203125 C2.2365625 12.33203125 1.2465625 12.33203125 0.2265625 12.33203125 C0.2265625 12.99203125 0.2265625 13.65203125 0.2265625 14.33203125 C3.63366438 16.74539508 6.44912746 16.42548967 10.38671875 15.82421875 C12.68842574 15.20847548 13.86900369 14.28352204 15.2265625 12.33203125 C15.7215625 13.81703125 15.7215625 13.81703125 16.2265625 15.33203125 C14.9065625 16.65203125 13.5865625 17.97203125 12.2265625 19.33203125 C12.84144531 19.87472656 13.45632812 20.41742188 14.08984375 20.9765625 C14.89808594 21.69199219 15.70632812 22.40742187 16.5390625 23.14453125 C17.33957031 23.85222656 18.14007813 24.55992188 18.96484375 25.2890625 C20.77639412 26.92540247 22.52337953 28.58475293 24.2265625 30.33203125 C19.81690021 29.84206877 18.25210886 28.45517588 15.2265625 25.33203125 C13.0883659 24.54476345 13.0883659 24.54476345 11.2265625 24.33203125 C11.2265625 23.34203125 11.2265625 22.35203125 11.2265625 21.33203125 C8.5865625 21.00203125 5.9465625 20.67203125 3.2265625 20.33203125 C3.2265625 20.99203125 3.2265625 21.65203125 3.2265625 22.33203125 C4.8765625 22.66203125 6.5265625 22.99203125 8.2265625 23.33203125 C8.2265625 23.99203125 8.2265625 24.65203125 8.2265625 25.33203125 C10.2065625 25.33203125 12.1865625 25.33203125 14.2265625 25.33203125 C14.2265625 25.66203125 14.2265625 25.99203125 14.2265625 26.33203125 C10.2665625 26.66203125 6.3065625 26.99203125 2.2265625 27.33203125 C1.5665625 25.68203125 0.9065625 24.03203125 0.2265625 22.33203125 C-0.4334375 22.99203125 -1.0934375 23.65203125 -1.7734375 24.33203125 C-2.4334375 22.68203125 -3.0934375 21.03203125 -3.7734375 19.33203125 C-4.4334375 19.33203125 -5.0934375 19.33203125 -5.7734375 19.33203125 C-6.1034375 20.32203125 -6.4334375 21.31203125 -6.7734375 22.33203125 C-7.1034375 21.34203125 -7.4334375 20.35203125 -7.7734375 19.33203125 C-8.4334375 19.33203125 -9.0934375 19.33203125 -9.7734375 19.33203125 C-10.1034375 18.67203125 -10.4334375 18.01203125 -10.7734375 17.33203125 C-12.66877092 16.86680062 -12.66877092 16.86680062 -14.8359375 16.70703125 C-16.1353125 16.58328125 -17.4346875 16.45953125 -18.7734375 16.33203125 C-18.7734375 14.68203125 -18.7734375 13.03203125 -18.7734375 11.33203125 C-18.06832031 11.66976562 -17.36320313 12.0075 -16.63671875 12.35546875 C-13.40329304 13.45827424 -11.33086048 13.36304607 -7.9609375 12.95703125 C-6.98511719 12.84617187 -6.00929687 12.7353125 -5.00390625 12.62109375 C-4.26785156 12.52570313 -3.53179687 12.4303125 -2.7734375 12.33203125 C-3.27230469 11.73648438 -3.77117187 11.1409375 -4.28515625 10.52734375 C-5.7734375 8.33203125 -5.7734375 8.33203125 -5.5859375 5.20703125 C-4.5344513 1.48638778 -3.89527923 0.46633625 0 0 Z " fill="#A1D8A1" transform="translate(186.7734375,96.66796875)"/>
<path d="M0 0 C2.84823003 0.40689 3.8941375 0.89072258 5.9375 3 C8.30854261 5.29919283 9.77231982 5.64136887 13 6 C12.67 6.99 12.34 7.98 12 9 C14.97 9.33 17.94 9.66 21 10 C21 9.34 21 8.68 21 8 C20.21625 8.04125 19.4325 8.0825 18.625 8.125 C16 8 16 8 14 6 C11.42938689 5.35232207 11.42938689 5.35232207 9 5 C9 4.67 9 4.34 9 4 C16.42857143 3.85714286 16.42857143 3.85714286 20 5 C20 4.34 20 3.68 20 3 C20.66 3 21.32 3 22 3 C22.3403125 4.423125 22.3403125 4.423125 22.6875 5.875 C23.69083714 9.19323388 23.69083714 9.19323388 26.625 10.375 C27.40875 10.58125 28.1925 10.7875 29 11 C29 10.01 29 9.02 29 8 C29.66 8 30.32 8 31 8 C31.680625 9.1446875 31.680625 9.1446875 32.375 10.3125 C34.00525469 13.00869044 35.39735892 14.29482136 38 16 C35.03 16.99 32.06 17.98 29 19 C29.020625 20.093125 29.04125 21.18625 29.0625 22.3125 C29 26 29 26 28 29 C25.00818583 30.49590709 23.3583794 30.42743011 20 30 C15.52445593 27.62307239 11.82801373 25.24202059 9 21 C12.0831351 22.19899698 15.06279492 23.47700477 18 25 C19.32 23.35 20.64 21.7 22 20 C21.34 20 20.68 20 20 20 C19.34 21.32 18.68 22.64 18 24 C17.67 23.34 17.34 22.68 17 22 C19 19 19 19 21.625 18.3125 C22.40875 18.209375 23.1925 18.10625 24 18 C21.36 16.35 18.72 14.7 16 13 C12.942048 14.73559438 10.36620011 16.38472619 8 19 C7.8125 16.6875 7.8125 16.6875 8 14 C9.51171875 12.33203125 9.51171875 12.33203125 11 11 C9.54405245 9.68485396 8.08516421 8.37296283 6.625 7.0625 C5.40683594 5.96615234 5.40683594 5.96615234 4.1640625 4.84765625 C2.14075833 2.97010529 2.14075833 2.97010529 0 2 C0 1.34 0 0.68 0 0 Z " fill="#39A24E" transform="translate(138,52)"/>
<path d="M0 0 C2.1875 -0.3125 2.1875 -0.3125 5 0 C9.21660873 3.3938558 11.50984644 7.2963766 14 12 C14.66 11.34 15.32 10.68 16 10 C16.79441072 11.87383903 17.58539974 13.74912886 18.375 15.625 C18.81585938 16.66914062 19.25671875 17.71328125 19.7109375 18.7890625 C21 22 21 22 21.7734375 25.08203125 C23.38663677 28.91980149 25.9430465 30.74319369 29.25 33.0625 C30.38111042 33.88548034 31.51132283 34.70969635 32.640625 35.53515625 C33.19999756 35.93645752 33.75937012 36.33775879 34.33569336 36.7512207 C36.01186092 38.0088996 37.57128057 39.35108107 39.14453125 40.734375 C41.84000517 42.87305472 43.12806537 43.68607051 46.4375 44.1875 C47.2934375 44.331875 48.149375 44.47625 49.03125 44.625 C51.21338141 44.90063765 53.40254751 45.12196065 55.59375 45.3125 C66.80770494 46.40654438 74.19306345 49.85207082 82 58 C78.5890019 57.37349014 76.37743664 56.05783637 73.5625 54.0625 C68.70496234 50.62420813 64.5607482 48.83169702 58.5859375 48.4375 C57.57789063 48.36273438 56.56984375 48.28796875 55.53125 48.2109375 C53.41930551 48.06979269 51.30732596 47.9291715 49.1953125 47.7890625 C48.18984375 47.71429688 47.184375 47.63953125 46.1484375 47.5625 C45.23239746 47.50191406 44.31635742 47.44132812 43.37255859 47.37890625 C41 47 41 47 38 45 C37.69449219 44.36964844 37.38898438 43.73929688 37.07421875 43.08984375 C35.731007 40.47668635 34.16046928 39.31236351 31.8125 37.5625 C31.01070312 36.95019531 30.20890625 36.33789062 29.3828125 35.70703125 C27.10631856 34.02102952 27.10631856 34.02102952 24.9921875 32.82421875 C19.86369372 29.77154388 18.61719092 26.29554017 17.01953125 20.62109375 C15.59800309 16.9665137 13.50311233 14.75155617 10 13 C10 12.01 10 11.02 10 10 C9.36893571 7.98848259 8.70626239 5.98636298 8 4 C5.03 3.505 5.03 3.505 2 3 C2 3.66 2 4.32 2 5 C1.01 4.67 0.02 4.34 -1 4 C-0.67 2.68 -0.34 1.36 0 0 Z " fill="#83CC84" transform="translate(139,88)"/>
<path d="M0 0 C2.88615785 2.49567767 4.16694736 5.18319454 5.75 8.625 C10.45601647 18.18734797 15.1443913 24.55268451 25 29 C25 29.33 25 29.66 25 30 C20.30722518 30.46927748 17.04527283 30.63996296 12.9375 28.125 C7.26917205 22.56750528 2.27534291 16.2402317 -1 9 C-1.5775 8.29875 -2.155 7.5975 -2.75 6.875 C-4 5 -4 5 -3.875 2.8125 C-3.58625 2.214375 -3.2975 1.61625 -3 1 C-2.01 0.67 -1.02 0.34 0 0 Z " fill="#E6F5E6" transform="translate(140,95)"/>
<path d="M0 0 C1.79206547 0.14084796 3.58364917 0.28783701 5.375 0.4375 C6.87160156 0.55931641 6.87160156 0.55931641 8.3984375 0.68359375 C11 1 11 1 13 2 C13 2.99 13 3.98 13 5 C13.99 5.33 14.98 5.66 16 6 C20.89335181 11.62026277 25.80852174 17.79942857 28 25 C27.67 25.66 27.34 26.32 27 27 C27.66 27 28.32 27 29 27 C29 27.66 29 28.32 29 29 C27.35 29.33 25.7 29.66 24 30 C23.5875 29.10539062 23.175 28.21078125 22.75 27.2890625 C17.39685105 15.95880683 11.94903108 6.25536089 0 1 C0 0.67 0 0.34 0 0 Z " fill="#EFF8EE" transform="translate(183,54)"/>
<path d="M0 0 C0.78375 0.33 1.5675 0.66 2.375 1 C4.84332497 2.11866511 4.84332497 2.11866511 7 2 C7 2.66 7 3.32 7 4 C8.72856459 4.4813341 10.45788071 4.95996971 12.1875 5.4375 C13.15042969 5.70433594 14.11335937 5.97117187 15.10546875 6.24609375 C17.72663697 6.92880018 20.338935 7.49892195 23 8 C23 7.34 23 6.68 23 6 C23.62648437 5.80664062 24.25296875 5.61328125 24.8984375 5.4140625 C25.71570313 5.15367188 26.53296875 4.89328125 27.375 4.625 C28.18710938 4.36976562 28.99921875 4.11453125 29.8359375 3.8515625 C32.16459185 3.10145717 32.16459185 3.10145717 34 1 C34.495 2.485 34.495 2.485 35 4 C33.68 5.32 32.36 6.64 31 8 C31.61488281 8.54269531 32.22976562 9.08539063 32.86328125 9.64453125 C34.07564453 10.71767578 34.07564453 10.71767578 35.3125 11.8125 C36.11300781 12.52019531 36.91351563 13.22789063 37.73828125 13.95703125 C39.54983162 15.59337122 41.29681703 17.25272168 43 19 C38.59033771 18.51003752 37.02554636 17.12314463 34 14 C31.8618034 13.2127322 31.8618034 13.2127322 30 13 C30 12.01 30 11.02 30 10 C27.36 9.67 24.72 9.34 22 9 C22 9.66 22 10.32 22 11 C24.475 11.495 24.475 11.495 27 12 C27 12.66 27 13.32 27 14 C28.98 14 30.96 14 33 14 C33 14.33 33 14.66 33 15 C27.06 15.495 27.06 15.495 21 16 C20.34 14.35 19.68 12.7 19 11 C18.34 11.66 17.68 12.32 17 13 C16.34 11.35 15.68 9.7 15 8 C14.34 8 13.68 8 13 8 C12.67 8.99 12.34 9.98 12 11 C11.67 10.01 11.34 9.02 11 8 C10.34 8 9.68 8 9 8 C8.67 7.34 8.34 6.68 8 6 C6.10466658 5.53476937 6.10466658 5.53476937 3.9375 5.375 C2.638125 5.25125 1.33875 5.1275 0 5 C0 3.35 0 1.7 0 0 Z " fill="#76C47C" transform="translate(168,108)"/>
<path d="M0 0 C10.86047605 -0.08819412 18.67186202 0.16295615 27 8 C25.68 8.33 24.36 8.66 23 9 C23.90363281 9.60585938 24.80726563 10.21171875 25.73828125 10.8359375 C36.53016656 18.38782456 36.53016656 18.38782456 38.125 24.4375 C38.25132812 25.24058594 38.37765625 26.04367188 38.5078125 26.87109375 C39.09698036 29.41947854 40.11851339 30.25581107 42 32 C42 32.66 42 33.32 42 34 C41.34 34 40.68 34 40 34 C39.67 34.99 39.34 35.98 39 37 C38.6596875 35.84242187 38.319375 34.68484375 37.96875 33.4921875 C34.9773005 22.77749764 34.9773005 22.77749764 27.24609375 15.390625 C24.33388125 13.58758561 22.26076495 11.26482815 19.875 8.8125 C13.77030022 3.1027597 8.21142531 1.93502361 0 1 C0 0.67 0 0.34 0 0 Z " fill="#8FD18F" transform="translate(154,44)"/>
<path d="M0 0 C4.28133304 1.34577308 6.18609797 3.02013447 8.8125 6.625 C9.71935547 7.85089844 9.71935547 7.85089844 10.64453125 9.1015625 C11.09183594 9.72804688 11.53914063 10.35453125 12 11 C12.33 10.67 12.66 10.34 13 10 C13.66 9.34 14.32 8.68 15 8 C16.32 10.64 17.64 13.28 19 16 C19.66 16 20.32 16 21 16 C21.33 15.34 21.66 14.68 22 14 C22.66 14 23.32 14 24 14 C27 17.46153846 27 17.46153846 27 20 C29.64 20.66 32.28 21.32 35 22 C35 22.33 35 22.66 35 23 C29.52706124 23.7736615 24.90865035 24.13161088 20.03515625 21.2421875 C17.24076637 18.92985927 14.61204997 16.51560505 12 14 C10.54667201 12.76491921 9.0888378 11.53510611 7.625 10.3125 C4.37490175 7.45027356 1.66280417 4.41171784 -1 1 C-0.67 0.67 -0.34 0.34 0 0 Z " fill="#8FD08F" transform="translate(108,48)"/>
<path d="M0 0 C1.5625 2.5 1.5625 2.5 1.4375 6.1875 C1.14875 7.280625 0.86 8.37375 0.5625 9.5 C-2.42931417 10.99590709 -4.0791206 10.92743011 -7.4375 10.5 C-11.91304407 8.12307239 -15.60948627 5.74202059 -18.4375 1.5 C-15.3543649 2.69899698 -12.37470508 3.97700477 -9.4375 5.5 C-8.1175 3.85 -6.7975 2.2 -5.4375 0.5 C-6.0975 0.5 -6.7575 0.5 -7.4375 0.5 C-8.0975 1.82 -8.7575 3.14 -9.4375 4.5 C-9.7675 3.84 -10.0975 3.18 -10.4375 2.5 C-8.4375 -0.5 -8.4375 -0.5 -5.5625 -1.4375 C-2.4375 -1.5 -2.4375 -1.5 0 0 Z " fill="#99D599" transform="translate(165.4375,71.5)"/>
<path d="M0 0 C1.03253906 0.72509766 1.03253906 0.72509766 2.0859375 1.46484375 C5.46588339 3.24543187 7.83077337 3.36122613 11.625 3.5625 C20.27916169 4.57580374 24.33495504 8.73376659 30 15 C29.01 15.495 29.01 15.495 28 16 C27.67 16.99 27.34 17.98 27 19 C26.34 19 25.68 19 25 19 C24.5875 17.865625 24.175 16.73125 23.75 15.5625 C22.43314602 11.90456616 22.43314602 11.90456616 19.8125 11.0625 C19.214375 11.041875 18.61625 11.02125 18 11 C18 11.66 18 12.32 18 13 C17.34 13 16.68 13 16 13 C15.57847656 12.21753906 15.15695313 11.43507813 14.72265625 10.62890625 C12.58136465 7.36113019 11.13409507 6.99577955 7.4375 5.9375 C2.28613417 4.45297625 2.28613417 4.45297625 0.66015625 1.87890625 C0.44230469 1.25886719 0.22445312 0.63882813 0 0 Z " fill="#86CD88" transform="translate(200,104)"/>
<path d="M0 0 C2.88615785 2.49567767 4.16694736 5.18319454 5.75 8.625 C10.45601647 18.18734797 15.1443913 24.55268451 25 29 C25 29.33 25 29.66 25 30 C23.54207116 30.05399736 22.08357288 30.09279177 20.625 30.125 C19.40683594 30.15980469 19.40683594 30.15980469 18.1640625 30.1953125 C16 30 16 30 14 28 C14.66 27.67 15.32 27.34 16 27 C14.92492187 25.99066406 14.92492187 25.99066406 13.828125 24.9609375 C10.68363111 21.80979095 8.22357822 18.31314956 5.75 14.625 C5.30398437 13.99078125 4.85796875 13.3565625 4.3984375 12.703125 C1.50744912 8.41044528 0.34751482 5.17262444 0 0 Z " fill="#7BC87B" transform="translate(140,95)"/>
<path d="M0 0 C0.88171875 0.07476562 1.7634375 0.14953125 2.671875 0.2265625 C10.17076609 0.96306073 15.7169499 2.97217866 22 7.25 C22.73734375 7.745 23.4746875 8.24 24.234375 8.75 C26.09058445 10.13136517 27.66753368 11.56737759 29.25 13.25 C25.8390019 12.62349014 23.62743664 11.30783637 20.8125 9.3125 C15.92620376 5.85385205 11.77530732 4.07857659 5.765625 3.6875 C4.74855469 3.61273438 3.73148438 3.53796875 2.68359375 3.4609375 C0.54564096 3.31928173 -1.59238134 3.17867159 -3.73046875 3.0390625 C-5.24833984 2.92691406 -5.24833984 2.92691406 -6.796875 2.8125 C-8.18664551 2.72162109 -8.18664551 2.72162109 -9.60449219 2.62890625 C-10.31250977 2.50386719 -11.02052734 2.37882813 -11.75 2.25 C-12.08 1.59 -12.41 0.93 -12.75 0.25 C-8.40191948 -1.19936017 -4.51096097 -0.4536886 0 0 Z " fill="#96D399" transform="translate(191.75,132.75)"/>
<path d="M0 0 C1.98 0 3.96 0 6 0 C6.33 0.99 6.66 1.98 7 3 C8.09248047 3.34611328 8.09248047 3.34611328 9.20703125 3.69921875 C13.41539482 5.65919787 15.19391377 9.00257166 17.6875 12.8125 C18.17283203 13.52470703 18.65816406 14.23691406 19.15820312 14.97070312 C25.3028293 24.13255264 25.3028293 24.13255264 24.625 28.3125 C24.315625 29.1478125 24.315625 29.1478125 24 30 C23.5875 29.10539062 23.175 28.21078125 22.75 27.2890625 C17.39685105 15.95880683 11.94903108 6.25536089 0 1 C0 0.67 0 0.34 0 0 Z " fill="#7FCA80" transform="translate(183,54)"/>
<path d="M0 0 C2.84823003 0.40689 3.8941375 0.89072258 5.9375 3 C8.30854261 5.29919283 9.77231982 5.64136887 13 6 C12.67 6.99 12.34 7.98 12 9 C14.97 9.495 14.97 9.495 18 10 C17.01 10.33 16.02 10.66 15 11 C15 11.99 15 12.98 15 14 C14.401875 14.268125 13.80375 14.53625 13.1875 14.8125 C11.02775192 15.98493467 9.64209744 17.19369282 8 19 C7.8125 16.6875 7.8125 16.6875 8 14 C9.51171875 12.33203125 9.51171875 12.33203125 11 11 C9.54405245 9.68485396 8.08516421 8.37296283 6.625 7.0625 C5.40683594 5.96615234 5.40683594 5.96615234 4.1640625 4.84765625 C2.14075833 2.97010529 2.14075833 2.97010529 0 2 C0 1.34 0 0.68 0 0 Z " fill="#81CB81" transform="translate(138,52)"/>
<path d="M0 0 C0.66 0.99 1.32 1.98 2 3 C0.68 4.32 -0.64 5.64 -2 7 C-1.38511719 7.54269531 -0.77023438 8.08539063 -0.13671875 8.64453125 C0.67152344 9.35996094 1.47976562 10.07539062 2.3125 10.8125 C3.11300781 11.52019531 3.91351563 12.22789063 4.73828125 12.95703125 C6.54983162 14.59337122 8.29681703 16.25272168 10 18 C5.59033771 17.51003752 4.02554636 16.12314463 1 13 C-1.1381966 12.2127322 -1.1381966 12.2127322 -3 12 C-3 11.01 -3 10.02 -3 9 C-5.97 8.505 -5.97 8.505 -9 8 C-8.67 7.01 -8.34 6.02 -8 5 C-5.68191636 3.96514123 -3.34824702 2.9644586 -1 2 C-0.67 1.34 -0.34 0.68 0 0 Z " fill="#72C475" transform="translate(201,109)"/>
<path d="M0 0 C9.67550265 -0.68837568 9.67550265 -0.68837568 13.625 1.875 C14.40875 2.57625 15.1925 3.2775 16 4 C16 4.66 16 5.32 16 6 C13.13421241 7.16161779 11.98369837 6.9946154 8.984375 6.00390625 C7.91703125 5.52824219 6.8496875 5.05257812 5.75 4.5625 C4.67234375 4.08941406 3.5946875 3.61632812 2.484375 3.12890625 C1.66453125 2.75636719 0.8446875 2.38382812 0 2 C0 1.34 0 0.68 0 0 Z " fill="#E8F5E9" transform="translate(175,110)"/>
<path d="M0 0 C0.99 0.33 1.98 0.66 3 1 C2.67 1.99 2.34 2.98 2 4 C2.66 3.01 3.32 2.02 4 1 C5.65 1.33 7.3 1.66 9 2 C7.35 4.31 5.7 6.62 4 9 C2.02 8.34 0.04 7.68 -2 7 C-1.125 1.125 -1.125 1.125 0 0 Z " fill="#F1F9F1" transform="translate(183,98)"/>
<path d="M0 0 C1.11375 0.185625 1.11375 0.185625 2.25 0.375 C3.04953138 3.66196233 3.34658936 5.08523192 2.25 8.375 C0.27 8.705 -1.71 9.035 -3.75 9.375 C-2.43 8.055 -1.11 6.735 0.25 5.375 C-0.41 6.035 -1.07 6.695 -1.75 7.375 C-4.375 7 -4.375 7 -6.75 6.375 C-3.42692308 0.46730769 -3.42692308 0.46730769 0 0 Z " fill="#F7FBF7" transform="translate(163.75,72.625)"/>
<path d="M0 0 C5.43445998 0.6864581 10.22452295 2.30614115 15 5 C15 5.33 15 5.66 15 6 C5.26995516 6.76681614 5.26995516 6.76681614 2.15625 4.88671875 C0.8125 3.5 0.8125 3.5 -1 1 C-0.67 0.67 -0.34 0.34 0 0 Z " fill="#F2F9F2" transform="translate(159,63)"/>
<path d="M0 0 C1.32 0.66 2.64 1.32 4 2 C2.35 2.33 0.7 2.66 -1 3 C-1 3.66 -1 4.32 -1 5 C0.65 5.33 2.3 5.66 4 6 C4 6.66 4 7.32 4 8 C5.98 8 7.96 8 10 8 C10 8.33 10 8.66 10 9 C4.06 9.495 4.06 9.495 -2 10 C-3.33333333 7.33333333 -4.66666667 4.66666667 -6 2 C-4.02 2 -2.04 2 0 2 C0 1.34 0 0.68 0 0 Z " fill="#46AC52" transform="translate(191,114)"/>
<path d="M0 0 C4.15786787 1.33109023 6.10380177 2.87974981 8.6875 6.375 C9.26886719 7.14585938 9.85023437 7.91671875 10.44921875 8.7109375 C11.835013 10.75646756 12.96272186 12.76193189 14 15 C8.13512553 11.54122788 3.69882819 6.88678132 -1 2 C-0.67 1.34 -0.34 0.68 0 0 Z " fill="#3CA74C" transform="translate(108,48)"/>
<path d="M0 0 C0.66 0 1.32 0 2 0 C5 3.46153846 5 3.46153846 5 6 C7.64 6.66 10.28 7.32 13 8 C13 8.33 13 8.66 13 9 C10.03 9 7.06 9 4 9 C4 8.01 4 7.02 4 6 C1.03 5.505 1.03 5.505 -2 5 C-1.34 3.35 -0.68 1.7 0 0 Z " fill="#9ED79D" transform="translate(130,62)"/>
<path d="M0 0 C1.90234375 0.265625 1.90234375 0.265625 4 1 C4.94140625 2.671875 4.94140625 2.671875 5.5625 4.75 C6.67856298 8.15917598 8.08363285 10.95123407 10 14 C10.33 14.99 10.66 15.98 11 17 C10.34 17 9.68 17 9 17 C8.67 17.99 8.34 18.98 8 20 C7.59007812 18.80761719 7.18015625 17.61523438 6.7578125 16.38671875 C6.21376431 14.82023516 5.6694812 13.25383314 5.125 11.6875 C4.72087891 10.50897461 4.72087891 10.50897461 4.30859375 9.30664062 C4.04433594 8.54931641 3.78007812 7.79199219 3.5078125 7.01171875 C3.26691895 6.31522217 3.02602539 5.61872559 2.77783203 4.90112305 C1.96234576 2.72867697 1.96234576 2.72867697 0 0 Z " fill="#7CC97B" transform="translate(185,61)"/>
<path d="M0 0 C4.22910467 1.40212252 6.87782215 3.41375181 10.125 6.4375 C11.39730469 7.61119141 11.39730469 7.61119141 12.6953125 8.80859375 C14.49053829 10.51557963 16.26279438 12.23440867 18 14 C16.35 14.33 14.7 14.66 13 15 C12.93683594 14.42378906 12.87367188 13.84757813 12.80859375 13.25390625 C11.66739856 10.07289356 9.74909286 8.93799024 7.0625 6.9375 C4.05162527 4.680427 2.10179732 3.15269597 0 0 Z " fill="#7DCA7D" transform="translate(164,119)"/>
<path d="M0 0 C0.33 0.99 0.66 1.98 1 3 C1.99 2.01 2.98 1.02 4 0 C3.42655063 2.86724686 3.1385485 3.8614515 1 6 C0.01 6 -0.98 6 -2 6 C-2 6.66 -2 7.32 -2 8 C-0.68 8.66 0.64 9.32 2 10 C1.01 10.495 1.01 10.495 0 11 C-2.64752004 8.42215154 -4.94432065 6.08351902 -7 3 C-6.21625 3.061875 -5.4325 3.12375 -4.625 3.1875 C-3.75875 3.125625 -2.8925 3.06375 -2 3 C-1.34 2.01 -0.68 1.02 0 0 Z " fill="#60B76E" transform="translate(189,103)"/>
<path d="M0 0 C0.99 0 1.98 0 3 0 C4.32 3.3 5.64 6.6 7 10 C6.34 10 5.68 10 5 10 C4.67 10.99 4.34 11.98 4 13 C3.731875 12.2575 3.46375 11.515 3.1875 10.75 C2.1400621 7.97863667 2.1400621 7.97863667 0.3125 5.9375 C-1 4 -1 4 -0.6875 1.75 C-0.460625 1.1725 -0.23375 0.595 0 0 Z " fill="#D2ECD3" transform="translate(137,96)"/>
<path d="M0 0 C2.64 0 5.28 0 8 0 C8.33 0.66 8.66 1.32 9 2 C8.67 2.66 8.34 3.32 8 4 C9.32 4 10.64 4 12 4 C12 4.99 12 5.98 12 7 C10.02 7 8.04 7 6 7 C5.7525 6.360625 5.505 5.72125 5.25 5.0625 C4.18437567 2.81258459 4.18437567 2.81258459 1.875 2.25 C0.946875 2.12625 0.946875 2.12625 0 2 C0 1.34 0 0.68 0 0 Z " fill="#DFF2DF" transform="translate(190,117)"/>
<path d="M0 0 C0.66 0 1.32 0 2 0 C2.33 1.98 2.66 3.96 3 6 C2.01 6.495 2.01 6.495 1 7 C1 6.34 1 5.68 1 5 C0.21625 5.04125 -0.5675 5.0825 -1.375 5.125 C-4 5 -4 5 -6 3 C-8.57061311 2.35232207 -8.57061311 2.35232207 -11 2 C-11 1.67 -11 1.34 -11 1 C-3.57142857 0.85714286 -3.57142857 0.85714286 0 2 C0 1.34 0 0.68 0 0 Z " fill="#83CC83" transform="translate(158,55)"/>
<path d="M0 0 C2.97 0.495 2.97 0.495 6 1 C6 1.99 6 2.98 6 4 C6.99 4.33 7.98 4.66 9 5 C10.6875 7.5625 10.6875 7.5625 12 10 C11.01 10.33 10.02 10.66 9 11 C8.52820313 10.27683594 8.52820313 10.27683594 8.046875 9.5390625 C4.90611252 4.74628648 4.90611252 4.74628648 0 2 C0 1.34 0 0.68 0 0 Z " fill="#CCEACC" transform="translate(190,55)"/>
<path d="M0 0 C1.31611677 0.95336021 2.62778961 1.91285774 3.9375 2.875 C4.66839844 3.40867187 5.39929688 3.94234375 6.15234375 4.4921875 C8 6 8 6 9 8 C8.34 8 7.68 8 7 8 C6.67 8.99 6.34 9.98 6 11 C5.34 11 4.68 11 4 11 C3.566875 9.906875 3.13375 8.81375 2.6875 7.6875 C1.50504359 4.90591207 0.39199957 2.93638061 -2 1 C-1.34 0.67 -0.68 0.34 0 0 Z " fill="#9CD69C" transform="translate(221,112)"/>
<path d="M0 0 C1.32 0.66 2.64 1.32 4 2 C3.67 3.32 3.34 4.64 3 6 C2.34 6 1.68 6 1 6 C1 6.66 1 7.32 1 8 C0.34 8 -0.32 8 -1 8 C-1.66 6.35 -2.32 4.7 -3 3 C-2.01 2.01 -1.02 1.02 0 0 Z " fill="#86CD85" transform="translate(217,109)"/>
<path d="M0 0 C0.33 0.66 0.66 1.32 1 2 C1.66 2.33 2.32 2.66 3 3 C1.2097939 3.67057887 -0.58221489 4.3363469 -2.375 5 C-3.37273437 5.37125 -4.37046875 5.7425 -5.3984375 6.125 C-8 7 -8 7 -10 7 C-10 6.01 -10 5.02 -10 4 C-6.7 2.68 -3.4 1.36 0 0 Z " fill="#11853E" transform="translate(123,39)"/>
<path d="M0 0 C0.556875 0.7734375 0.556875 0.7734375 1.125 1.5625 C-0.525 1.5625 -2.175 1.5625 -3.875 1.5625 C-4.535 2.8825 -5.195 4.2025 -5.875 5.5625 C-6.865 5.5625 -7.855 5.5625 -8.875 5.5625 C-7.555 3.9125 -6.235 2.2625 -4.875 0.5625 C-5.535 0.5625 -6.195 0.5625 -6.875 0.5625 C-7.535 1.8825 -8.195 3.2025 -8.875 4.5625 C-9.205 3.9025 -9.535 3.2425 -9.875 2.5625 C-7.875 -0.4375 -7.875 -0.4375 -4.9375 -1.3125 C-1.875 -1.4375 -1.875 -1.4375 0 0 Z " fill="#85CD85" transform="translate(164.875,71.4375)"/>
<path d="M0 0 C2.1875 -0.3125 2.1875 -0.3125 5 0 C7.8125 2.5 7.8125 2.5 10 5 C9.67 5.99 9.34 6.98 9 8 C8.67 6.68 8.34 5.36 8 4 C5.03 3.505 5.03 3.505 2 3 C2 3.66 2 4.32 2 5 C1.01 4.67 0.02 4.34 -1 4 C-0.67 2.68 -0.34 1.36 0 0 Z " fill="#B0DEB0" transform="translate(139,88)"/>
<path d="M0 0 C1.75 0.125 1.75 0.125 4 1 C6.25 4.0625 6.25 4.0625 8 7 C7.67 7.66 7.34 8.32 7 9 C3.73539027 7.19587357 2.11070205 6.16605307 0 3 C0 2.01 0 1.02 0 0 Z " fill="#E6F5E5" transform="translate(200,65)"/>
<path d="M0 0 C2.875 -0.125 2.875 -0.125 6 0 C6.66 0.66 7.32 1.32 8 2 C10.57061311 2.64767793 10.57061311 2.64767793 13 3 C13 3.66 13 4.32 13 5 C10.03 5 7.06 5 4 5 C3.67 4.34 3.34 3.68 3 3 C3.66 3 4.32 3 5 3 C5 2.34 5 1.68 5 1 C3.35 1 1.7 1 0 1 C0 0.67 0 0.34 0 0 Z " fill="#EDF7ED" transform="translate(146,57)"/>
<path d="M0 0 C2.84823003 0.40689 3.8941375 0.89072258 5.9375 3 C8.30854261 5.29919283 9.77231982 5.64136887 13 6 C12.67 6.66 12.34 7.32 12 8 C7.15409462 7.55946315 3.51858133 5.25494123 0 2 C0 1.34 0 0.68 0 0 Z " fill="#90D28F" transform="translate(138,52)"/>
<path d="M0 0 C4.72254335 1.49132948 4.72254335 1.49132948 6.125 4.0625 C6.41375 4.701875 6.7025 5.34125 7 6 C7.99 6.33 8.98 6.66 10 7 C8.68 7.33 7.36 7.66 6 8 C4.02 5.36 2.04 2.72 0 0 Z " fill="#CDEACC" transform="translate(147,115)"/>
<path d="M0 0 C2.60045875 2.3024119 3.84739183 4.49896677 5.1875 7.6875 C5.53167969 8.49574219 5.87585938 9.30398437 6.23046875 10.13671875 C6.48441406 10.75160156 6.73835937 11.36648437 7 12 C6.01 12 5.02 12 4 12 C1.03176403 8.23262357 0.46101836 4.70238725 0 0 Z " fill="#87CE87" transform="translate(140,95)"/>
<path d="M0 0 C1.5 1.0625 1.5 1.0625 3 3 C3.1875 6.6875 3.1875 6.6875 3 10 C0.9375 8.375 0.9375 8.375 -1 6 C-0.75 2.75 -0.75 2.75 0 0 Z " fill="#0D8438" transform="translate(151,91)"/>
<path d="M0 0 C0.66 0.33 1.32 0.66 2 1 C1.67 1.66 1.34 2.32 1 3 C1.99823102 4.96008799 1.99823102 4.96008799 3.4375 7 C6 10.79836512 6 10.79836512 6 13 C3 12 3 12 1.61328125 9.71484375 C1.18402344 8.79832031 0.75476563 7.88179688 0.3125 6.9375 C-0.12449219 6.01839844 -0.56148437 5.09929687 -1.01171875 4.15234375 C-1.50091797 3.08693359 -1.50091797 3.08693359 -2 2 C-1.34 1.34 -0.68 0.68 0 0 Z " fill="#A2D8A3" transform="translate(198,77)"/>
<path d="M0 0 C7.81636537 1.91722169 7.81636537 1.91722169 10 5 C10 5.66 10 6.32 10 7 C5.56541027 5.6062718 3.12621626 3.39417765 0 0 Z " fill="#BCE3BB" transform="translate(168,126)"/>
<path d="M0 0 C2.475 0.495 2.475 0.495 5 1 C5 1.66 5 2.32 5 3 C6.98 3 8.96 3 11 3 C11 3.33 11 3.66 11 4 C7.37 4 3.74 4 0 4 C0 2.68 0 1.36 0 0 Z " fill="#7DCA7C" transform="translate(190,119)"/>
<path d="M0 0 C0.66 0.99 1.32 1.98 2 3 C0 6 0 6 -2.4375 6.8125 C-5 7 -5 7 -8 5 C-6.865625 4.54625 -5.73125 4.0925 -4.5625 3.625 C-0.95278308 2.42904194 -0.95278308 2.42904194 0 0 Z " fill="#84CD83" transform="translate(201,109)"/>
<path d="M0 0 C0.66 0 1.32 0 2 0 C2.45375 0.763125 2.9075 1.52625 3.375 2.3125 C5.00525469 5.00869044 6.39735892 6.29482136 9 8 C5.6591357 8 3.88941691 7.67282031 1 6 C0.1875 2.875 0.1875 2.875 0 0 Z " fill="#79C57F" transform="translate(167,60)"/>
<path d="M0 0 C4.10958767 1.45044271 7.43258745 3.51110752 11 6 C6.96153846 7.34615385 6.96153846 7.34615385 4 6 C1.75 2.9375 1.75 2.9375 0 0 Z " fill="#B7E1B8" transform="translate(170,46)"/>
<path d="M0 0 C0.99 0.33 1.98 0.66 3 1 C2.67 3.31 2.34 5.62 2 8 C0.02 8.33 -1.96 8.66 -4 9 C-3.34 8.443125 -2.68 7.88625 -2 7.3125 C0.25492211 5.15937692 0.25492211 5.15937692 0.25 2.25 C0.1675 1.5075 0.085 0.765 0 0 Z " fill="#E0F2E0" transform="translate(164,73)"/>
<path d="M0 0 C3.99996286 1.33332095 4.83782337 3.4957827 7 7 C6.67 7.66 6.34 8.32 6 9 C3.69 6.69 1.38 4.38 -1 2 C-0.67 1.34 -0.34 0.68 0 0 Z " fill="#E0F2E0" transform="translate(108,48)"/>
<path d="M0 0 C0.33 0.99 0.66 1.98 1 3 C1.99 2.01 2.98 1.02 4 0 C3.42655063 2.86724686 3.1385485 3.8614515 1 6 C-1.125 5.625 -1.125 5.625 -3 5 C-2.01 3.35 -1.02 1.7 0 0 Z " fill="#82CC81" transform="translate(189,103)"/>
<path d="M0 0 C3.14958831 3.42346555 3.56179109 6.44262737 4 11 C2 10 2 10 0.875 7.75 C-0.00513321 4.98386705 -0.1645438 2.87951649 0 0 Z " fill="#8ACF8A" transform="translate(204,73)"/>
<path d="M0 0 C2.25245881 2.68841859 3.88213958 4.64641875 5 8 C4.34 8 3.68 8 3 8 C2.67 8.99 2.34 9.98 2 11 C0.80712589 7.12315913 0 4.08378077 0 0 Z " fill="#95D394" transform="translate(191,70)"/>
<path d="M0 0 C1.94268841 2.91403262 3.46395304 5.85808576 5 9 C4.34 9 3.68 9 3 9 C3 8.34 3 7.68 3 7 C1.68 7 0.36 7 -1 7 C-0.67 4.69 -0.34 2.38 0 0 Z " fill="#A0D7A3" transform="translate(161,95)"/>
<path d="M0 0 C0.99 0.33 1.98 0.66 3 1 C2.1875 3.4375 2.1875 3.4375 1 6 C0.01 6.33 -0.98 6.66 -2 7 C-1.125 1.125 -1.125 1.125 0 0 Z " fill="#D5EDD7" transform="translate(183,98)"/>
<path d="M0 0 C3.93673644 1.31224548 6.22719294 2.91910327 9 6 C5.32579134 5.69381595 4.21864487 5.24228216 1.6875 2.4375 C1.130625 1.633125 0.57375 0.82875 0 0 Z " fill="#81CB80" transform="translate(202,121)"/>
<path d="M0 0 C2.31 0.33 4.62 0.66 7 1 C6.01 1.495 6.01 1.495 5 2 C5 2.66 5 3.32 5 4 C3.0625 3.6875 3.0625 3.6875 1 3 C0.67 2.01 0.34 1.02 0 0 Z " fill="#AFDEAE" transform="translate(210,108)"/>
<path d="M0 0 C6.75 1.75 6.75 1.75 9 4 C7.3125 4.8125 7.3125 4.8125 5 5 C2.25 2.5625 2.25 2.5625 0 0 Z " fill="#E2F3E1" transform="translate(176,52)"/>
</svg>
